IKResults
version=1
nRows=105
nColumns=5
inDegrees=yes

Units are S.I. units (second, meters, Newtons, ...)
If the header above contains a line with 'inDegrees', this indicates whether rotational values are in degrees (yes) or radians (no).

endheader
time	r_shoulder_elev	r_shoulder_side	r_elbow_flex	r_elbow_rotation
      6.53333000	     81.92454673	     21.86224139	     44.62804025	      3.48342309
      6.55000000	     81.48323124	     21.80888819	     46.28717094	      3.48923017
      6.56667000	     80.87451607	     22.15989182	     50.58244268	      3.48655984
      6.58333000	     78.03862519	     20.17857961	     65.51927545	      3.48461217
      6.60000000	     76.72075718	     19.52021790	     70.96723228	      3.49116094
      6.61667000	     76.39358060	     19.60230782	     72.61938805	      3.49079544
      6.63333000	     76.36028025	     20.09394703	     73.07744637	      3.49097902
      6.65000000	     75.28850263	     16.10295070	     76.25835849	      3.49154154
      6.66667000	     75.43967514	     15.65314833	     76.69011891	      3.49164047
      6.68333000	     75.13418335	     18.02454443	     83.69151413	      3.49034640
      6.70000000	     74.37331396	     18.12314453	     86.96428662	      3.48979406
      6.71667000	     74.36377683	     19.71962801	     88.07369106	      3.49108941
      6.73333000	     74.34662789	     20.18559391	     88.18184587	      3.53051672
      6.75000000	     74.08365634	     22.11360868	     89.54968566	      3.49015390
      6.76667000	     73.07547430	     21.26813681	     91.78719138	      3.49237976
      6.78333000	     72.58069254	     20.69624183	     92.51188133	      3.49099828
      6.80000000	     74.44422884	     26.21414728	     93.86276847	      3.48819925
      6.81667000	     74.62587004	     27.76139746	     94.78500216	      3.49198259
      6.83333000	     74.48828933	     28.01151762	     95.62564625	      3.48930165
      6.85000000	     72.87463524	     25.61523273	     99.82044623	      3.48757967
      6.86667000	     72.37193573	     25.77634407	    100.93852039	      3.48913207
      6.88333000	     71.91641198	     25.93259521	    101.67399893	      3.49037220
      6.90000000	     72.50143406	     23.59699547	    104.57433038	      3.48483032
      6.91667000	     72.04619857	     21.41690558	    105.92640019	      3.49047012
      6.93333000	     72.59879818	     23.46779845	    106.00253829	      3.52189542
      6.95000000	     73.27624377	     25.64468657	    107.53549392	      3.49016523
      6.96667000	     73.47325447	     26.42491921	    107.87041648	      3.49102473
      6.98333000	     72.02103437	     23.30597503	    112.51044170	      3.49179390
      7.00000000	     71.41661807	     22.34755582	    114.01992916	      3.49112541
      7.01667000	     70.89908279	     21.45778862	    114.76807750	      3.49139895
      7.03333000	     69.87220790	     18.31655063	    114.86330713	      3.50231607
      7.05000000	     64.54076917	     -4.29382436	    108.02375503	      3.49264057
      7.06667000	     64.46861366	     -7.67736479	    105.74478467	      3.49164142
      7.08333000	     63.70944580	    -11.55691941	    105.06071866	      3.49132508
      7.10000000	     63.04156819	    -12.65481852	    105.21125126	      3.49177182
      7.11667000	     63.00594385	    -14.21282921	    103.93556191	      3.49200136
      7.13333000	     63.43789494	    -13.64225210	    104.34524756	      3.49182423
      7.15000000	     63.08581068	    -15.17062506	    103.64932298	      3.49224622
      7.16667000	     63.14695193	    -16.12999527	    102.91269839	      3.49205113
      7.18333000	     63.24363520	    -16.59694558	    102.47857703	      3.49217651
      7.20000000	     68.19062089	     12.91746670	    123.08932223	      3.48601895
      7.21667000	     65.96204146	      5.89758662	    122.69064178	      3.49211927
      7.23333000	     67.96240891	     10.91533142	    123.63312034	      3.49103525
      7.25000000	     63.79039529	     -7.32975597	    115.86528242	      3.49326953
      7.26667000	     63.57763857	    -15.37188944	    108.50140883	      3.49228095
      7.28333000	     63.78162000	    -16.49310007	    107.30266104	      3.49252496
      7.30000000	     63.66837515	    -22.47692021	    102.33063734	      3.49237447
      7.31667000	     64.07872775	    -23.11388199	    102.20628832	      3.49091438
      7.33333000	     64.16398543	    -24.00435998	    101.25628327	      3.49188800
      7.35000000	     64.09731570	    -26.51521431	     98.56201564	      3.49074695
      7.36667000	     63.90623196	    -25.75657589	    100.09990868	      3.49126057
      7.38333000	     63.21406615	    -25.06453045	    103.12191272	      3.49174789
      7.40000000	     63.00008479	    -24.98287979	    103.81890786	      3.49168367
      7.41667000	     63.29154799	    -24.76542566	    104.52095706	      3.49161211
      7.43333000	     63.30759329	    -24.56707929	    105.04255792	      3.49211106
      7.45000000	     62.54243827	    -17.60563095	    114.59844035	      3.49170660
      7.46667000	     62.18046989	    -15.78130027	    117.03365688	      3.49321294
      7.48333000	     61.87716051	    -17.05074335	    117.20798557	      3.48445272
      7.50000000	     62.24951352	    -14.91441700	    120.07916715	      3.49127986
      7.51667000	     63.54916001	     -9.44576169	    125.13580031	      3.49205486
      7.53333000	     62.06426754	    -12.95125043	    122.27609739	      3.49178211
      7.55000000	     60.95041728	    -14.96659548	    120.48316555	      3.49237814
      7.56667000	     61.02380691	    -16.55631225	    118.98949183	      3.49151009
      7.58333000	     62.78996135	    -11.55232243	    124.15969258	      3.49073043
      7.60000000	     62.36834458	    -10.03582891	    126.39195355	      3.49172265
      7.61667000	     63.01729767	     -6.34596368	    129.75535179	      3.49110169
      7.63333000	     62.70786166	     -7.42268193	    129.31540628	      3.49193481
      7.65000000	     59.52845976	    -20.41955243	    115.59014235	      3.49196715
      7.66667000	     59.51159178	    -24.03612370	    110.71882684	      3.49211418
      7.68333000	     59.42630531	    -29.67528799	    101.72694607	      3.49323970
      7.70000000	     60.76596943	    -37.57385166	     87.33576017	      3.49271712
      7.71667000	     60.81487476	    -37.76440190	     87.16806838	      3.48862927
      7.73333000	     61.14697626	    -38.59495806	     85.48597517	      3.49199588
      7.75000000	     60.89500904	    -37.21830537	     88.55138284	      3.49187382
      7.76667000	     61.11728222	    -38.68017563	     85.10363140	      3.49247960
      7.78333000	     61.08819901	    -38.87289141	     84.76305868	      3.49157073
      7.80000000	     61.05172205	    -38.59192283	     85.51904431	      3.49183450
      7.81667000	     61.18328520	    -38.99616723	     84.81408858	      3.49151561
      7.83333000	     61.56741715	    -40.56921376	     81.19134521	      3.49169387
      7.85000000	     61.72848560	    -40.55520458	     81.51096622	      3.49246826
      7.86667000	     61.74935618	    -39.40653808	     84.85633268	      3.49111932
      7.88333000	     60.14582260	    -29.23923134	    104.65992069	      3.49189698
      7.90000000	     61.76301314	     -9.63451614	    129.61256046	      3.49164785
      7.91667000	     61.70491736	     -8.44856154	    130.68952605	      3.49177843
      7.93333000	     62.10559095	     -6.64563222	    132.08518843	      3.49064108
      7.95000000	     64.34129382	     -2.65653900	    134.18091122	      3.49157272
      7.96667000	     64.91193329	     -0.14247751	    135.45097785	      3.49110989
      7.98333000	     62.74060589	     -5.15612965	    133.01077175	      3.49197322
      8.00000000	     65.19466497	      1.18911544	    136.09155747	      3.49208109
      8.01667000	     64.89033641	      1.81865812	    136.61064918	      3.49177194
      8.03333000	     63.96844925	      0.62659188	    136.36009421	      3.49213127
      8.05000000	     63.17351096	     -2.11391225	    134.88865110	      3.49265907
      8.06667000	     63.12804285	     -2.39536077	    134.67225093	      3.49195660
      8.08333000	     62.82109261	     -3.70880603	    133.72300162	      3.49198979
      8.10000000	     62.96918405	     -4.52367828	    132.58021453	      3.49187769
      8.11667000	     63.17707939	     -5.85995664	    131.14681069	      3.49237553
      8.13333000	     63.47258542	     -6.05617609	    130.55584932	      3.49047040
      8.15000000	     63.56197759	     -6.03046694	    130.29387251	      3.49134300
      8.16667000	     62.78049010	    -11.36784986	    125.90608737	      3.49275443
      8.18333000	     61.66869019	    -16.36970265	    118.95880638	      3.49249121
      8.20000000	     61.40435386	    -24.97914834	    107.51657578	      3.49416555
      8.21667000	     61.86529575	    -22.91904083	    110.38644932	      3.49162633
      8.23333000	     61.76259462	    -20.11123086	    113.30221520	      3.49220729
      8.25000000	     62.00883413	    -22.85425659	    109.21370797	      3.49214575
      8.26667000	     62.07852136	    -21.73461611	    110.15559680	      3.49181424
